<?xml version="1.0" ?><!DOCTYPE svg  PUBLIC '-//W3C//DTD SVG 1.1//EN'  'http://www.w3.org/Graphics/SVG/1.1/DTD/svg11.dtd'><svg enable-background="new 0 0 26 26" id="Слой_1" version="1.1" viewBox="0 0 26 26" xml:space="preserve" xmlns="http://www.w3.org/2000/svg" xmlns:xlink="http://www.w3.org/1999/xlink"><g><path d="M6.75,18.5h-5C1.3359375,18.5,1,18.8359375,1,19.25v5C1,24.6640625,1.3359375,25,1.75,25h5   c0.4140625,0,0.75-0.3359375,0.75-0.75v-5C7.5,18.8359375,7.1640625,18.5,6.75,18.5z M6,23.5H2.5V20H6V23.5z" fill="#1D1D1B"/><path d="M24.25,18.5h-5c-0.4140625,0-0.75,0.3359375-0.75,0.75v5c0,0.4140625,0.3359375,0.75,0.75,0.75h5   c0.4140625,0,0.75-0.3359375,0.75-0.75v-5C25,18.8359375,24.6640625,18.5,24.25,18.5z M23.5,23.5H20V20h3.5V23.5z" fill="#1D1D1B"/><path d="M15.5,18.5h-5c-0.4140625,0-0.75,0.3359375-0.75,0.75v5c0,0.4140625,0.3359375,0.75,0.75,0.75h5   c0.4140625,0,0.75-0.3359375,0.75-0.75v-5C16.25,18.8359375,15.9140625,18.5,15.5,18.5z M14.75,23.5h-3.5V20h3.5V23.5z" fill="#1D1D1B"/><path d="M6.75,9.75h-5C1.3359375,9.75,1,10.0859375,1,10.5v5c0,0.4140625,0.3359375,0.75,0.75,0.75h5   c0.4140625,0,0.75-0.3359375,0.75-0.75v-5C7.5,10.0859375,7.1640625,9.75,6.75,9.75z M6,14.75H2.5v-3.5H6V14.75z" fill="#1D1D1B"/><path d="M24.25,9.75h-5c-0.4140625,0-0.75,0.3359375-0.75,0.75v5c0,0.4140625,0.3359375,0.75,0.75,0.75h5   c0.4140625,0,0.75-0.3359375,0.75-0.75v-5C25,10.0859375,24.6640625,9.75,24.25,9.75z M23.5,14.75H20v-3.5h3.5V14.75z" fill="#1D1D1B"/><path d="M15.5,9.75h-5c-0.4140625,0-0.75,0.3359375-0.75,0.75v5c0,0.4140625,0.3359375,0.75,0.75,0.75h5   c0.4140625,0,0.75-0.3359375,0.75-0.75v-5C16.25,10.0859375,15.9140625,9.75,15.5,9.75z M14.75,14.75h-3.5v-3.5h3.5V14.75z" fill="#1D1D1B"/><path d="M6.75,1h-5C1.3359375,1,1,1.3359375,1,1.75v5C1,7.1640625,1.3359375,7.5,1.75,7.5h5   c0.4140625,0,0.75-0.3359375,0.75-0.75v-5C7.5,1.3359375,7.1640625,1,6.75,1z M6,6H2.5V2.5H6V6z" fill="#1D1D1B"/><path d="M24.25,1h-5c-0.4140625,0-0.75,0.3359375-0.75,0.75v5c0,0.4140625,0.3359375,0.75,0.75,0.75h5   C24.6640625,7.5,25,7.1640625,25,6.75v-5C25,1.3359375,24.6640625,1,24.25,1z M23.5,6H20V2.5h3.5V6z" fill="#1D1D1B"/><path d="M15.5,1h-5c-0.4140625,0-0.75,0.3359375-0.75,0.75v5c0,0.4140625,0.3359375,0.75,0.75,0.75h5   c0.4140625,0,0.75-0.3359375,0.75-0.75v-5C16.25,1.3359375,15.9140625,1,15.5,1z M14.75,6h-3.5V2.5h3.5V6z" fill="#1D1D1B"/></g></svg>